# xmcd
#
# Track frame offsets:
#	182
#	19132
#	39925
#	53295
#	71272
#	88357
#	109782
#	129152
#	151032
#	171972
#
# Disc length: 2614 seconds
# Revision: 2
# Processed by: cddbd v1.5.2PL0 Copyright (c) Steve Scherf et al.
# Submitted via: dBpowerAMP V12.0
#
DISCID=6e0a340a
DTITLE=蘇永康 - 假使有日能忘記 [dBS]
DYEAR=1995
DGENRE=Chinese Pop
TTITLE0=假使有日能忘記
TTITLE1=I Like You
TTITLE2=識得繼續笑
TTITLE3=有人喜歡藍
TTITLE4=我不喜歡打領呔
TTITLE5=你想怎樣
TTITLE6=八時恭候
TTITLE7=夜窗
TTITLE8=男人不讓女人流淚
TTITLE9=愛己離開
EXTD=
EXTT0=
EXTT1=
EXTT2=
EXTT3=
EXTT4=
EXTT5=
EXTT6=
EXTT7=
EXTT8=
EXTT9=
PLAYORDER=
